<svg width="1919" height="68" viewBox="0 0 1919 68" fill="none" xmlns="http://www.w3.org/2000/svg">
<g clip-path="url(#clip0_1039_163)">
<rect width="1919" height="68" fill="black" fill-opacity="0.12"/>
<path d="M10 21.5503C56.0298 21.5503 101.718 25.2505 147.747 25.2505C211.495 25.2505 274.218 29.7658 337.909 32.2398C473.02 37.488 608.256 32.6509 743.427 32.6509C792.19 32.6509 841.451 30.9961 890.163 32.7537C933.665 34.3233 975.959 39.3113 1019.17 32.5481C1067.69 24.9549 1117.72 16 1167.18 16C1191.48 16 1215.79 16 1240.1 16C1263.28 16 1285.92 19.7116 1308.97 21.1392C1360.95 24.3577 1413.87 23.4004 1465.97 23.4004C1505.98 23.4004 1545.61 17.8501 1585.48 17.8501C1608.78 17.8501 1632.07 17.8501 1655.37 17.8501C1672.99 17.8501 1688.03 23.4004 1705.38 23.4004C1733.23 23.4004 1761.08 23.4004 1788.94 23.4004C1802.91 23.4004 1816.88 23.4004 1830.84 23.4004C1843.21 23.4004 1855.57 23.4004 1867.94 23.4004C1885.18 23.4004 1905.71 25.9585 1922 21.5503" stroke="white" stroke-width="31" stroke-linecap="round"/>
</g>
<defs>
<clipPath id="clip0_1039_163">
<rect width="1919" height="68" fill="white"/>
</clipPath>
</defs>
</svg>
